<?xml version="1.0" encoding="UTF-8"?> <svg xmlns="http://www.w3.org/2000/svg" width="42" height="42" viewBox="0 0 42 42" fill="none"> <g clip-path="url(#clip0)"> <path d="M29.9489 6.28644C29.031 5.86505 28.1794 5.9835 27.6059 6.17037C27.3732 5.61354 26.907 4.88978 25.9891 4.4683C25.3582 4.17865 24.6719 4.15667 24.0042 4.40473C23.1932 4.70595 22.4963 5.38508 22.0924 6.26782C21.5779 7.39222 21.1311 9.82995 23.9193 13.5233C24.0362 13.6779 24.2183 13.7679 24.4105 13.7679C24.4235 13.7679 24.4366 13.7674 24.4497 13.7666C29.064 13.4715 30.6163 11.5407 31.1309 10.416C31.8914 8.75386 31.3721 6.93999 29.9489 6.28644ZM30.0119 9.90394C29.623 10.7539 28.4178 12.1993 24.7033 12.5139C22.5161 9.48894 22.8224 7.63003 23.2114 6.77978C23.4805 6.19186 23.9256 5.7466 24.4328 5.55817C24.5652 5.50895 24.7363 5.46613 24.9301 5.46613C25.0982 5.46613 25.2835 5.49837 25.4757 5.58655C26.4445 6.03141 26.5995 7.04573 26.6068 7.09765C26.6341 7.30814 26.7678 7.48984 26.9608 7.57827C27.1551 7.66728 27.3817 7.64898 27.5592 7.5302C27.568 7.5243 28.4608 6.95721 29.4354 7.40469C30.3251 7.81321 30.4272 8.99618 30.0119 9.90394Z" fill="white" fill-opacity="0.85"></path> <path d="M19.9521 1.86795C19.3873 0.417224 17.9643 -0.338776 16.7121 0.146849C15.9619 0.437895 15.5343 0.974134 15.297 1.4203C14.8204 1.25107 14.1423 1.14353 13.3922 1.43449C12.8348 1.65065 12.4097 2.06121 12.1629 2.62181C11.866 3.29611 11.8669 4.12274 12.1655 4.88973C12.5412 5.85491 13.7405 7.54467 17.5512 8.01865C17.5767 8.02177 17.602 8.02333 17.6273 8.02333C17.806 8.02333 17.9775 7.9454 18.0952 7.8075C18.4587 7.38151 18.7803 6.95323 19.0509 6.53462C19.2354 6.24924 19.1536 5.86836 18.8682 5.68388C18.5829 5.49931 18.202 5.58109 18.0176 5.86656C17.83 6.15654 17.6139 6.45333 17.3726 6.75184C15.2311 6.42536 13.7596 5.59266 13.3122 4.4434C13.1339 3.98542 13.1252 3.48979 13.289 3.11777C13.4031 2.85897 13.5874 2.67858 13.8371 2.58178C14.5926 2.2886 15.2336 2.74511 15.2559 2.76118C15.4262 2.89022 15.6513 2.92164 15.8505 2.84428C16.0496 2.76684 16.1943 2.59154 16.2327 2.3813C16.2341 2.37342 16.397 1.58888 17.1571 1.29406C17.8375 1.03 18.5295 1.60561 18.8055 2.31428C18.965 2.72402 19.0036 3.19521 18.9202 3.71472C18.8664 4.05031 19.0947 4.36588 19.4302 4.41969C19.7661 4.47326 20.0813 4.24513 20.1351 3.90962C20.2536 3.17126 20.192 2.48433 19.9521 1.86795Z" fill="white" fill-opacity="0.85"></path> <path d="M20.8605 15.3628L14.4858 12.6709L8.11753 9.95851C7.82649 9.83473 7.48917 9.95146 7.33709 10.2286L6.59832 11.5751C6.57658 11.6146 6.55509 11.6543 6.53376 11.694C6.3729 11.9934 6.4852 12.3664 6.78453 12.5272C7.08378 12.6881 7.45677 12.5759 7.61763 12.2765C7.63724 12.24 7.65693 12.2036 7.67702 12.1672L8.14796 11.309L14.0055 13.8038L19.8689 16.2798L19.5793 17.2151C19.4866 17.5144 19.3831 17.8081 19.2714 18.0973H6.05019C6.0885 16.9151 6.28644 15.732 6.64721 14.5822C6.74893 14.258 6.56862 13.9126 6.24444 13.8109C5.91992 13.709 5.5749 13.8896 5.47318 14.2137C5.01209 15.6834 4.79397 17.2032 4.81439 18.7136C4.81439 18.7161 4.81406 18.7185 4.81415 18.721C4.81431 18.7316 4.8148 18.7421 4.81497 18.7526C4.81644 18.8421 4.81874 18.9317 4.82186 19.0213C4.82276 19.0477 4.82366 19.0742 4.82473 19.1006C4.82801 19.1805 4.83203 19.2603 4.83662 19.3401C4.83867 19.3762 4.84056 19.4123 4.84286 19.4483C4.84704 19.5127 4.85204 19.5771 4.85713 19.6414C4.86107 19.692 4.86476 19.7426 4.86927 19.793C4.87272 19.8313 4.87682 19.8695 4.88051 19.9076C4.95803 20.7085 5.10306 21.4964 5.31445 22.2673C5.31527 22.2705 5.31617 22.2736 5.31699 22.2767C5.343 22.3713 5.36999 22.4656 5.39796 22.5596C5.40149 22.5714 5.4051 22.5832 5.40862 22.5951C5.43463 22.6816 5.46137 22.7681 5.4891 22.8541C5.49599 22.8755 5.50321 22.8969 5.51018 22.9183C5.53553 22.9957 5.56112 23.073 5.58786 23.1501C5.59959 23.1839 5.61181 23.2174 5.62379 23.2511C5.64717 23.3168 5.67038 23.3825 5.69467 23.4478C5.71378 23.4993 5.73388 23.5505 5.75365 23.6017C5.77243 23.6505 5.79072 23.6994 5.81008 23.7479C5.85036 23.8491 5.8917 23.9499 5.93436 24.0503C5.9789 24.155 6.02107 24.2581 6.06143 24.36C6.0716 24.3856 6.08079 24.4106 6.09071 24.436C6.12073 24.5132 6.14994 24.5898 6.17742 24.6652C6.18718 24.6918 6.19628 24.7179 6.20564 24.7443C6.23189 24.8181 6.25715 24.891 6.28094 24.9629C6.28914 24.9876 6.2971 25.0121 6.30498 25.0365C6.32893 25.111 6.35157 25.1843 6.37273 25.2564C6.65361 26.2109 6.692 26.9648 6.47773 27.4683L3.70041 34.0063L2.75599 33.6043C2.28185 33.4024 1.75759 33.3973 1.2796 33.5899C0.801602 33.7824 0.427213 34.1497 0.225499 34.6238L0.0711169 34.9865C-0.0207577 35.2022 -0.0230546 35.4409 0.0645544 35.6585C0.152163 35.876 0.31926 36.0465 0.535084 36.1383L7.3051 39.0201C7.41567 39.0672 7.53216 39.0907 7.64881 39.0907C7.75979 39.0907 7.87086 39.0694 7.97701 39.0267C8.19456 38.9391 8.36494 38.7719 8.45681 38.5561L8.61119 38.1934C8.81299 37.7193 8.81807 37.1949 8.62555 36.7168C8.43294 36.2388 8.06585 35.8645 7.59171 35.6627L6.64335 35.259L9.41411 28.7131C9.6324 28.1964 10.2242 27.6874 11.1446 27.2159C11.1771 27.1992 11.2102 27.1825 11.2436 27.166C11.2901 27.1428 11.3372 27.1199 11.3854 27.0969C11.4089 27.0857 11.4321 27.0744 11.4559 27.0633C11.5215 27.0327 11.5887 27.0023 11.657 26.9721C11.6787 26.9624 11.7006 26.9528 11.7227 26.9432C11.796 26.9114 11.8704 26.8797 11.9467 26.8483C11.9617 26.8421 11.9769 26.8361 11.9919 26.8299C12.0759 26.7958 12.161 26.7617 12.2486 26.7282C12.3676 26.6826 12.4857 26.635 12.6031 26.5861C12.6413 26.5703 12.679 26.5535 12.717 26.5372C12.796 26.5035 12.875 26.4696 12.9533 26.4344C12.9995 26.4137 13.0454 26.3921 13.0914 26.3709C13.1601 26.3391 13.2288 26.3071 13.297 26.2742C13.3486 26.2494 13.3997 26.224 13.4509 26.1986C13.5113 26.1686 13.5715 26.1382 13.6315 26.1073C13.689 26.0777 13.7463 26.0476 13.8034 26.0171C13.853 25.9906 13.9024 25.9639 13.9516 25.9368C14.0183 25.9002 14.0848 25.8634 14.1509 25.8258C14.1827 25.8076 14.2144 25.789 14.2461 25.7706C15.4677 25.0627 16.5885 24.1714 17.5515 23.1319C18.3227 22.2995 18.9947 21.3693 19.5521 20.3735C19.58 20.3239 19.6081 20.2745 19.6354 20.2245C19.6617 20.1761 19.6873 20.1274 19.7131 20.0787C19.7493 20.0106 19.7852 19.9423 19.8203 19.8735C19.8425 19.83 19.8641 19.7863 19.8859 19.7426C19.9218 19.6704 19.9573 19.5979 19.9921 19.525C20.0141 19.4789 20.0358 19.4325 20.0574 19.386C20.0885 19.319 20.119 19.2517 20.1491 19.1842C20.1739 19.1283 20.1986 19.0724 20.2228 19.0163C20.2319 18.9949 20.2417 18.9739 20.2508 18.9524C20.2531 18.947 20.2545 18.9414 20.2566 18.9359C20.4448 18.4918 20.6121 18.039 20.7546 17.5787L21.2089 16.1116C21.3024 15.8095 21.1518 15.4858 20.8605 15.3628ZM7.11003 36.7949C7.28164 36.8679 7.41461 37.0035 7.48433 37.1766C7.55406 37.3497 7.55226 37.5396 7.47917 37.7114L7.46284 37.7498L1.34145 35.144L1.35777 35.1056C1.43086 34.9339 1.56646 34.8009 1.73954 34.7312C1.91263 34.6615 2.10253 34.6633 2.2743 34.7364C2.2766 34.7374 2.2743 34.7364 2.2766 34.7374L7.11003 36.7949ZM8.28102 28.2337L5.5119 34.7756L4.83293 34.4876L7.61025 27.9497C7.82566 27.4437 7.8935 26.8452 7.81533 26.147L9.43396 26.8334C8.87779 27.2627 8.49487 27.7273 8.28102 28.2337ZM12.3981 25.335C12.3556 25.3538 12.3128 25.3721 12.2701 25.3905C12.219 25.4125 12.1678 25.4346 12.1164 25.4559C12.0142 25.4981 11.9115 25.5396 11.8079 25.5793C11.8056 25.5802 11.8033 25.5812 11.801 25.5821C11.6968 25.6222 11.5949 25.6628 11.4947 25.704C11.4426 25.7254 11.3923 25.7469 11.3415 25.7684C11.2966 25.7874 11.2518 25.8065 11.2078 25.8258C11.1409 25.8549 11.0756 25.8843 11.0109 25.9139C10.9914 25.9228 10.972 25.9318 10.9527 25.9408C10.8771 25.9759 10.8025 26.0111 10.73 26.0467L7.48015 24.6683C7.45538 24.5917 7.42896 24.5138 7.40173 24.4353C7.39459 24.4147 7.38746 24.3942 7.38015 24.3734C7.35661 24.3068 7.33233 24.2396 7.30698 24.1717C7.29 24.1261 7.2722 24.0799 7.25448 24.0337C7.23488 23.9829 7.21576 23.9326 7.19518 23.8811C7.15408 23.7779 7.1115 23.6738 7.06663 23.5684C7.02964 23.4814 6.99362 23.394 6.9586 23.3063C6.95261 23.2912 6.94695 23.2761 6.94096 23.261C6.91176 23.187 6.88288 23.1128 6.85507 23.0384C6.85147 23.0288 6.84818 23.0191 6.84457 23.0096C6.81447 22.9285 6.78502 22.8472 6.75664 22.7656C6.75598 22.7637 6.75532 22.7618 6.75467 22.7599C6.47453 21.9532 6.27684 21.1223 6.16191 20.2801C6.16077 20.2714 6.15953 20.2627 6.15839 20.254C6.14789 20.1759 6.13837 20.0976 6.12926 20.0194C6.1268 19.9979 6.12426 19.9764 6.12188 19.9548C6.11483 19.8913 6.10851 19.8277 6.10244 19.764C6.099 19.7278 6.09547 19.6917 6.09235 19.6555C6.08817 19.6081 6.08464 19.5606 6.08103 19.5131C6.07718 19.4616 6.07324 19.41 6.06996 19.3584C6.0693 19.3482 6.06881 19.3378 6.06815 19.3276H18.7185C17.3531 21.9963 15.1063 24.1344 12.3981 25.335Z" fill="white" fill-opacity="0.85"></path> <path d="M41.9299 37.8956L41.7755 37.5329C41.5737 37.0588 41.1994 36.6916 40.7214 36.499C40.2434 36.3064 39.719 36.3116 39.245 36.5133L38.3006 36.9154L35.5231 30.377C35.309 29.8741 35.3474 29.1209 35.6277 28.1674C35.649 28.0947 35.6718 28.0208 35.696 27.9459C35.7039 27.9212 35.712 27.8965 35.7203 27.8715C35.7438 27.8005 35.7688 27.7282 35.7948 27.6552C35.8046 27.6279 35.8139 27.6009 35.824 27.5733C35.8511 27.4993 35.8799 27.4239 35.9093 27.348C35.9197 27.3214 35.9293 27.2954 35.9399 27.2686C35.9793 27.1693 36.0205 27.0687 36.0638 26.9667C36.0649 26.9643 36.0658 26.962 36.0668 26.9595C36.0673 26.9584 36.0677 26.9571 36.0682 26.956C36.1158 26.844 36.1614 26.7313 36.2061 26.6183C36.2161 26.5928 36.2259 26.5672 36.2358 26.5416C36.2761 26.4378 36.3152 26.3335 36.353 26.2289C36.3563 26.2198 36.3597 26.2106 36.363 26.2014C36.8098 24.9553 37.0783 23.6531 37.1615 22.3189C37.1619 22.3125 37.1615 22.306 37.1617 22.2995C37.1958 21.7497 37.1985 21.1977 37.1682 20.6473C37.0505 18.5054 36.4401 16.3743 35.4031 14.4844L34.6642 13.1379C34.5121 12.8606 34.1746 12.7438 33.8838 12.8677L32.3114 13.5374C31.9988 13.6706 31.8533 14.032 31.9865 14.3446C32.1197 14.6573 32.4809 14.8028 32.7936 14.6696L33.8535 14.2182L34.3244 15.0764C35.4582 17.1425 36.0079 19.4082 35.965 21.6655H23.005C22.7819 21.1684 22.5862 20.6544 22.4221 20.1242L22.1325 19.189L27.9977 16.7123L30.3793 15.6979C30.6919 15.5648 30.8374 15.2033 30.7042 14.8907C30.571 14.5781 30.2097 14.4326 29.8971 14.5657L27.5173 15.5794L21.1407 18.2721C20.8494 18.3951 20.6988 18.7188 20.7923 19.0209L21.2466 20.4882C21.4637 21.1894 21.7365 21.8738 22.0579 22.5345C22.0602 22.5396 22.0617 22.5449 22.0643 22.55C22.0794 22.581 22.0953 22.6115 22.1105 22.6424C22.1353 22.6923 22.16 22.7421 22.1853 22.7916C22.2266 22.8726 22.2689 22.953 22.3116 23.0331C22.3254 23.0589 22.3388 23.0849 22.3528 23.1107C23.8469 25.8724 26.1683 28.0414 28.9907 29.3182C29.0029 29.3238 29.0151 29.3293 29.0273 29.3348C29.1274 29.3798 29.2283 29.4236 29.3297 29.4664C29.3528 29.4761 29.3757 29.4861 29.3988 29.4957C29.516 29.5444 29.6338 29.5919 29.7526 29.6375C29.8401 29.671 29.9251 29.705 30.0089 29.7391C30.0241 29.7454 30.0395 29.7515 30.0546 29.7577C30.1307 29.789 30.2049 29.8205 30.2779 29.8523C30.3003 29.862 30.3226 29.8719 30.3448 29.8816C30.413 29.9117 30.4799 29.9421 30.5453 29.9726C30.5691 29.9837 30.5923 29.995 30.6157 30.0061C30.664 30.0292 30.7114 30.0522 30.7581 30.0755C30.7909 30.0918 30.8235 30.1081 30.8556 30.1246C31.7766 30.5964 32.3688 31.1055 32.5873 31.6228L35.3579 38.1683L34.4095 38.572C33.9354 38.7738 33.5683 39.1482 33.3757 39.6262C33.1831 40.1041 33.1882 40.6285 33.39 41.1026L33.5444 41.4654C33.6363 41.6812 33.8067 41.8483 34.0242 41.936C34.1303 41.9787 34.2414 42 34.3524 42C34.469 42 34.5856 41.9765 34.6961 41.9294L41.466 39.0476C41.9114 38.8579 42.1195 38.3411 41.9299 37.8956ZM31.2712 28.9557C31.1994 28.9205 31.1255 28.8855 31.0506 28.8508C31.0299 28.8412 31.0093 28.8316 30.9884 28.822C30.9249 28.793 30.8605 28.7641 30.7949 28.7354C30.7494 28.7155 30.7028 28.6958 30.6563 28.676C30.607 28.6551 30.5581 28.6342 30.5076 28.6135C30.4069 28.5722 30.3046 28.5313 30.2 28.4911C30.1977 28.4902 30.1956 28.4893 30.1933 28.4884C30.0893 28.4485 29.9865 28.4069 29.8839 28.3646C29.8501 28.3506 29.8163 28.3362 29.7826 28.322C29.7148 28.2933 29.6473 28.2639 29.5801 28.2341C29.5395 28.2161 29.4988 28.1982 29.4584 28.1798C29.3993 28.1529 29.3407 28.125 29.2822 28.0973C29.1819 28.0497 29.0822 28.0011 28.9834 27.9509C28.9639 27.9411 28.9443 27.9314 28.9247 27.9214C28.8478 27.882 28.7713 27.8418 28.6952 27.8007C28.6931 27.7996 28.691 27.7984 28.6889 27.7974C26.5993 26.6692 24.8576 24.9804 23.6426 22.8959H35.8761C35.7726 23.8123 35.572 24.7093 35.2775 25.5774C35.2697 25.6003 35.2619 25.6231 35.2539 25.646C35.2151 25.7583 35.1743 25.8701 35.1323 25.9815C35.1204 26.013 35.1089 26.0446 35.0967 26.0761C35.0448 26.2107 34.991 26.3447 34.9345 26.4777C34.8895 26.5833 34.8469 26.6877 34.8056 26.7913C34.7855 26.8415 34.7669 26.8908 34.7477 26.9403C34.7294 26.9878 34.7111 27.0352 34.6937 27.0821C34.6687 27.1493 34.6448 27.2157 34.6215 27.2816C34.6139 27.303 34.6065 27.3243 34.5992 27.3456C34.5721 27.4237 34.5457 27.5012 34.5211 27.5775L31.2712 28.9557ZM33.7204 31.1435C33.5063 30.6368 33.1233 30.172 32.5671 29.7428L34.1858 29.0563C34.1076 29.7545 34.1755 30.3527 34.3908 30.8586L37.1683 37.397L36.4893 37.6849L33.7204 31.1435ZM34.5383 40.659L34.522 40.6206C34.4489 40.4489 34.447 40.259 34.5168 40.0859C34.5865 39.9129 34.7195 39.7773 34.8912 39.7042L39.7269 37.6456C39.8149 37.6081 39.9076 37.5894 40.0004 37.5894C40.0887 37.5894 40.1772 37.6064 40.2616 37.6404C40.4347 37.7102 40.5703 37.8431 40.6433 38.0148L40.6597 38.0532L34.5383 40.659Z" fill="white" fill-opacity="0.85"></path> </g> <defs> <clipPath id="clip0"> <rect width="42" height="42" fill="white"></rect> </clipPath> </defs> </svg> 