<?xml version="1.0" encoding="UTF-8"?> <svg xmlns="http://www.w3.org/2000/svg" width="73" height="73" viewBox="0 0 73 73" fill="none"> <g clip-path="url(#clip0)"> <path d="M21.7517 21.7224C21.02 20.563 20.6482 19.2128 20.6835 17.8424C20.6622 16.9772 20.803 16.1155 21.0984 15.302C21.2862 14.8417 21.5049 14.3945 21.7529 13.9637C22.0259 13.4861 22.2697 12.9925 22.4829 12.4854C22.9276 11.3498 23.1431 10.1374 23.1168 8.91817C23.1547 7.14138 22.6808 5.3912 21.7517 3.8763C21.0197 2.71849 20.6479 1.36936 20.6835 0H18.2502C18.2123 1.77679 18.6862 3.52696 19.6152 5.04187C20.3474 6.19968 20.7191 7.54881 20.6835 8.91817C20.7087 9.82398 20.5527 10.7257 20.2248 11.5705C20.0456 11.9918 19.8425 12.4024 19.6165 12.8006C19.3158 13.3257 19.0524 13.8712 18.8281 14.4333C18.4249 15.5228 18.2298 16.6784 18.2526 17.84C18.2147 19.6178 18.6886 21.3692 19.6177 22.8855C20.3495 24.0451 20.7204 25.3959 20.6835 26.7667H23.1168C23.155 24.9891 22.6811 23.238 21.7517 21.7224Z" fill="url(#paint0_linear)"></path> <path d="M31.4846 21.7224C30.753 20.563 30.3811 19.2128 30.4164 17.8424C30.3951 16.9772 30.5359 16.1155 30.8313 15.302C31.0189 14.8404 31.2376 14.3921 31.4858 13.96C31.7588 13.4825 32.0026 12.9888 32.2158 12.4818C32.6601 11.3474 32.8756 10.1362 32.8497 8.91817C32.8876 7.14138 32.4137 5.3912 31.4846 3.8763C30.7526 2.71849 30.3808 1.36936 30.4164 0H27.9831C27.9452 1.77679 28.4191 3.52696 29.3482 5.04187C30.0803 6.19968 30.452 7.54881 30.4164 8.91817C30.4416 9.82398 30.2856 10.7257 29.9577 11.5705C29.7786 11.9918 29.5754 12.4024 29.3494 12.8006C29.0487 13.3257 28.7853 13.8712 28.561 14.4333C28.1578 15.5228 27.9627 16.6784 27.9855 17.84C27.9476 19.6178 28.4215 21.3692 29.3506 22.8855C30.0824 24.0451 30.4533 25.3959 30.4164 26.7667H32.8497C32.8879 24.9891 32.414 23.238 31.4846 21.7224Z" fill="url(#paint1_linear)"></path> <path d="M41.218 21.7224C40.4863 20.563 40.1145 19.2128 40.1498 17.8424C40.1285 16.9772 40.2693 16.1155 40.5647 15.302C40.7523 14.8404 40.971 14.3921 41.2192 13.96C41.4922 13.4825 41.736 12.9888 41.9492 12.4818C42.3935 11.3474 42.609 10.1362 42.5831 8.91817C42.621 7.14138 42.1471 5.3912 41.218 3.8763C40.486 2.71849 40.1142 1.36936 40.1498 0H37.7165C37.6786 1.77679 38.1525 3.52696 39.0816 5.04187C39.8137 6.19968 40.1854 7.54881 40.1498 8.91817C40.175 9.82398 40.019 10.7257 39.6911 11.5705C39.512 11.9918 39.3088 12.4024 39.0828 12.8006C38.7821 13.3257 38.5187 13.8712 38.2944 14.4333C37.8912 15.5228 37.6961 16.6784 37.7189 17.84C37.681 19.6178 38.1549 21.3692 39.084 22.8855C39.8158 24.0451 40.1867 25.3959 40.1498 26.7667H42.5831C42.6213 24.9891 42.1474 23.238 41.218 21.7224Z" fill="url(#paint2_linear)"></path> <path d="M47.4499 58.4C47.4499 59.744 46.3606 60.8334 45.0166 60.8334V63.2667C47.7044 63.2667 49.8833 61.0878 49.8833 58.4H47.4499Z" fill="url(#paint3_linear)"></path> <path d="M49.8835 53.5333H47.4502V55.9667H49.8835V53.5333Z" fill="url(#paint4_linear)"></path> <path d="M63.2668 36.5H54.7501V31.6333C54.7501 30.9614 54.2054 30.4166 53.5335 30.4166H6.08346C5.41156 30.4166 4.8668 30.9614 4.8668 31.6333V58.4C4.86832 61.1977 6.07723 63.8585 8.18343 65.7H1.2168V68.1333H6.54823L8.64455 72.3271C8.85062 72.7396 9.27235 73.0001 9.73346 73H49.8835C50.3469 73.0025 50.7713 72.7416 50.9785 72.3271L53.0687 68.1333H58.4001V65.7H51.4335C53.5397 63.8585 54.7486 61.1977 54.7501 58.4V57.1833H63.2668C67.9681 57.178 71.7781 53.368 71.7835 48.6666V45.0166C71.7781 40.3153 67.9681 36.5053 63.2668 36.5ZM49.1316 70.5666H10.4854L9.2687 68.1333H50.3482L49.1316 70.5666ZM52.3168 58.4C52.3128 62.43 49.0469 65.696 45.0168 65.7H14.6001C10.5701 65.696 7.30408 62.43 7.30013 58.4V32.85H52.3168V58.4ZM54.7501 43.8H61.4418C62.7858 43.8 63.8751 44.8893 63.8751 46.2333V47.45C63.8751 48.7939 62.7858 49.8833 61.4418 49.8833H54.7501V43.8ZM69.3501 48.6666C69.3462 52.0246 66.6248 54.746 63.2668 54.75H54.7501V52.3166H61.4418C64.1296 52.3166 66.3085 50.1377 66.3085 47.45V46.2333C66.3085 43.5455 64.1296 41.3666 61.4418 41.3666H54.7501V38.9333H63.2668C66.6248 38.9372 69.3462 41.6586 69.3501 45.0166V48.6666Z" fill="url(#paint5_linear)"></path> <path d="M40.0892 42.0188C37.5983 39.5278 33.5598 39.5278 31.0689 42.0188L30.7124 42.3753L30.3559 42.0188C27.8649 39.5278 23.8265 39.5278 21.3355 42.0188C18.8445 44.5098 18.8445 48.5482 21.3355 51.0392L29.8522 59.5558C30.3273 60.0308 31.0974 60.0308 31.5726 59.5558L40.0892 51.0392C42.5802 48.5482 42.5802 44.5098 40.0892 42.0188ZM38.4321 49.2555C38.4113 49.2768 38.3902 49.298 38.3689 49.3188L30.7124 56.9753L23.0559 49.3188C21.5179 47.7768 21.5179 45.2811 23.0559 43.7392C24.5973 42.1999 27.0942 42.1999 28.6355 43.7392L29.8522 44.9558C30.3273 45.4308 31.0974 45.4308 31.5726 44.9558L32.7892 43.7392C34.3125 42.1809 36.8106 42.1526 38.3689 43.6759C39.9271 45.1992 39.9554 47.6973 38.4321 49.2555Z" fill="url(#paint6_linear)"></path> </g> <defs> <linearGradient id="paint0_linear" x1="20.6835" y1="0" x2="20.6835" y2="26.7667" gradientUnits="userSpaceOnUse"> <stop stop-color="#7845CF"></stop> <stop offset="1" stop-color="#9932CC"></stop> </linearGradient> <linearGradient id="paint1_linear" x1="30.4164" y1="0" x2="30.4164" y2="26.7667" gradientUnits="userSpaceOnUse"> <stop stop-color="#7845CF"></stop> <stop offset="1" stop-color="#9932CC"></stop> </linearGradient> <linearGradient id="paint2_linear" x1="40.1498" y1="0" x2="40.1498" y2="26.7667" gradientUnits="userSpaceOnUse"> <stop stop-color="#7845CF"></stop> <stop offset="1" stop-color="#9932CC"></stop> </linearGradient> <linearGradient id="paint3_linear" x1="47.4499" y1="58.4" x2="47.4499" y2="63.2667" gradientUnits="userSpaceOnUse"> <stop stop-color="#7845CF"></stop> <stop offset="1" stop-color="#9932CC"></stop> </linearGradient> <linearGradient id="paint4_linear" x1="48.6669" y1="53.5333" x2="48.6669" y2="55.9667" gradientUnits="userSpaceOnUse"> <stop stop-color="#7845CF"></stop> <stop offset="1" stop-color="#9932CC"></stop> </linearGradient> <linearGradient id="paint5_linear" x1="36.5001" y1="30.4166" x2="36.5001" y2="73" gradientUnits="userSpaceOnUse"> <stop stop-color="#7845CF"></stop> <stop offset="1" stop-color="#9932CC"></stop> </linearGradient> <linearGradient id="paint6_linear" x1="30.7124" y1="40.1506" x2="30.7124" y2="59.9121" gradientUnits="userSpaceOnUse"> <stop stop-color="#7845CF"></stop> <stop offset="1" stop-color="#9932CC"></stop> </linearGradient> <clipPath id="clip0"> <rect width="73" height="73" fill="white"></rect> </clipPath> </defs> </svg> 