<?xml version="1.0" encoding="UTF-8"?> <svg xmlns="http://www.w3.org/2000/svg" width="73" height="73" viewBox="0 0 73 73" fill="none"> <g clip-path="url(#clip0)"> <path d="M72.6477 40.83C71.7814 36.9216 69.184 33.6197 65.5894 31.8574C64.4675 31.3059 63.2616 30.945 62.0212 30.7896C62.2426 30.1645 62.4379 29.4873 62.6072 28.9143C63.8629 23.8668 62.7508 18.5219 59.586 14.3941C56.3222 9.95549 51.2097 7.25052 45.7039 7.04932C39.7925 6.83249 34.2858 10.0422 31.5613 15.2927C28.8322 10.0401 23.3207 6.8307 17.4057 7.04932C11.9044 7.25443 6.79757 9.9589 3.53654 14.3941C0.367152 18.5198 -0.749703 23.8646 0.502262 28.9143C2.57286 36.8581 8.66746 42.51 15.1267 48.4483C17.1452 50.3235 19.2418 52.2639 21.1952 54.2824C26.4043 59.7129 30.5455 64.2317 30.5846 64.2708C31.0684 64.8031 31.8919 64.8423 32.4242 64.3585C32.4548 64.3307 32.4841 64.3014 32.5119 64.2708C32.5119 64.2708 34.27 62.3174 36.9266 59.4915C38.0856 62.7471 38.8409 65.0391 38.8539 65.0652C39.0784 65.7485 39.8144 66.1203 40.4976 65.896C40.5409 65.8819 40.5834 65.8653 40.625 65.8465C40.625 65.8465 44.5318 64.0755 49.5586 62.0569C51.3947 61.3147 53.2961 60.6635 55.1453 60.0254C61.1096 58.033 66.7354 56.0665 70.3687 51.4435C72.7066 48.438 73.5458 44.5303 72.6477 40.83ZM31.5614 61.523C30.0378 59.8561 26.8603 56.4312 23.0707 52.5244C21.0652 50.4668 18.9555 48.5004 16.911 46.5991C10.7382 40.8691 4.90408 35.4647 3.02882 28.2632C1.9748 23.9744 2.93359 19.4391 5.63335 15.9438C8.42735 12.1493 12.8008 9.83779 17.51 9.66687C27.0816 9.28921 30.2071 18.366 30.3243 18.7827C30.5489 19.4659 31.2849 19.8379 31.9681 19.6132C32.3612 19.484 32.6693 19.1758 32.7986 18.7827C32.7986 18.6916 35.9631 9.35433 45.6129 9.66687C50.322 9.83779 54.6955 12.1493 57.4895 15.9438C60.1893 19.4391 61.1481 23.9744 60.094 28.2632C59.8624 29.15 59.5709 30.0203 59.2215 30.8677C57.4361 31.1223 55.7288 31.7671 54.2208 32.756C53.6983 28.7014 51.0153 25.2504 47.2146 23.7443C43.4854 22.2554 39.2809 22.5479 35.7938 24.5387C32.4525 26.365 30.127 29.6159 29.4778 33.3681C28.5272 39.2152 30.8842 44.6847 33.3846 50.4798C34.1529 52.2769 34.9603 54.1262 35.6375 55.9754L35.9501 56.8088C34.0357 58.8273 32.486 60.5073 31.5614 61.523ZM68.3895 49.8287V49.8026C65.1598 53.8787 59.9508 55.7019 54.299 57.6292C52.4237 58.2804 50.4833 58.9315 48.582 59.7129C45.2873 61.0151 42.4484 62.3174 40.8726 62.9555C40.3257 61.3277 39.3099 58.3976 38.0728 55.0768C37.3565 53.1625 36.5491 51.2742 35.7677 49.451C33.4237 44.0206 31.2228 38.8897 32.0433 33.8239C32.5673 30.8526 34.4181 28.2826 37.07 26.8437C38.6583 25.9408 40.452 25.4609 42.2791 25.4503C43.6175 25.4519 44.9433 25.7083 46.1859 26.2056C52.2414 28.6278 51.6814 35.1001 51.6554 35.3215C51.581 36.0369 52.1007 36.677 52.8162 36.7514C53.2318 36.7945 53.6428 36.6356 53.9213 36.3242C54.1036 36.1158 58.5183 31.3365 64.3394 34.1885C67.2417 35.5974 69.3421 38.254 70.0433 41.403C70.8024 44.3169 70.1937 47.4179 68.3895 49.8287Z" fill="url(#paint0_linear)"></path> </g> <defs> <linearGradient id="paint0_linear" x1="34.1476" y1="13.6554" x2="54.6946" y2="33.463" gradientUnits="userSpaceOnUse"> <stop stop-color="#7845CF"></stop> <stop offset="1" stop-color="#9932CC"></stop> </linearGradient> <clipPath id="clip0"> <rect width="73" height="73" fill="white"></rect> </clipPath> </defs> </svg> 