<?xml version="1.0" encoding="UTF-8"?> <svg xmlns="http://www.w3.org/2000/svg" width="39" height="39" viewBox="0 0 39 39" fill="none"> <g clip-path="url(#clip0)"> <path d="M38.8118 21.8133C38.3489 19.7253 36.9613 17.9612 35.0409 17.0197C34.4416 16.7251 33.7973 16.5323 33.1346 16.4492C33.2529 16.1153 33.3573 15.7535 33.4477 15.4474C34.1186 12.7507 33.5244 9.89529 31.8336 7.69C30.0899 5.31869 27.3586 3.87357 24.4171 3.76608C21.259 3.65024 18.3171 5.36504 16.8615 8.17005C15.4035 5.36391 12.459 3.64928 9.29891 3.76608C6.35988 3.87566 3.63158 5.32051 1.88938 7.69C0.19615 9.89416 -0.400526 12.7496 0.268331 15.4474C1.37454 19.6913 4.63056 22.7108 8.08138 25.8833C9.15976 26.8852 10.2799 27.9218 11.3235 29.0002C14.1064 31.9014 16.3188 34.3156 16.3397 34.3365C16.5982 34.6208 17.0381 34.6418 17.3225 34.3833C17.3389 34.3685 17.3545 34.3528 17.3694 34.3365C17.3694 34.3365 18.3086 33.2929 19.7279 31.7831C20.3471 33.5225 20.7506 34.7469 20.7576 34.7609C20.8775 35.1259 21.2707 35.3246 21.6357 35.2047C21.6588 35.1972 21.6815 35.1883 21.7038 35.1783C21.7038 35.1783 23.791 34.2321 26.4765 33.1537C27.4575 32.7571 28.4732 32.4093 29.4612 32.0684C32.6476 31.0039 35.6532 29.9534 37.5943 27.4835C38.8433 25.8779 39.2916 23.7901 38.8118 21.8133ZM16.8616 32.8685C16.0476 31.9779 14.35 30.1482 12.3254 28.061C11.254 26.9617 10.1269 25.9112 9.03462 24.8954C5.73686 21.8342 2.61999 18.9469 1.61814 15.0995C1.05503 12.8082 1.56726 10.3853 3.0096 8.51791C4.50228 6.49073 6.83881 5.25581 9.35466 5.1645C14.4683 4.96273 16.138 9.81197 16.2006 10.0346C16.3207 10.3996 16.7138 10.5983 17.0788 10.4783C17.2889 10.4093 17.4535 10.2446 17.5225 10.0346C17.5225 9.9859 19.2132 4.99752 24.3685 5.1645C26.8844 5.25581 29.2209 6.49073 30.7136 8.51791C32.1559 10.3853 32.6681 12.8082 32.105 15.0995C31.9813 15.5733 31.8255 16.0382 31.6389 16.491C30.685 16.627 29.7729 16.9715 28.9673 17.4998C28.6881 15.3336 27.2547 13.4899 25.2243 12.6853C23.2319 11.8899 20.9857 12.0461 19.1227 13.1097C17.3376 14.0854 16.0952 15.8222 15.7484 17.8268C15.2405 20.9506 16.4998 23.8727 17.8356 26.9687C18.2461 27.9288 18.6774 28.9167 19.0392 29.9047L19.2062 30.3499C18.1835 31.4283 17.3556 32.3258 16.8616 32.8685ZM36.5368 26.6208V26.6069C34.8114 28.7845 32.0285 29.7586 29.009 30.7882C28.0072 31.1361 26.9705 31.484 25.9548 31.9014C24.1946 32.5971 22.6779 33.2929 21.8361 33.6338C21.5438 32.7641 21.0012 31.1987 20.3402 29.4246C19.9576 28.4019 19.5262 27.3931 19.1088 26.419C17.8565 23.5179 16.6807 20.7767 17.119 18.0703C17.3989 16.4829 18.3878 15.1099 19.8045 14.3412C20.6531 13.8588 21.6113 13.6024 22.5874 13.5967C23.3025 13.5976 24.0108 13.7346 24.6746 14.0003C27.9098 15.2943 27.6106 18.7521 27.5967 18.8704C27.557 19.2526 27.8346 19.5945 28.2169 19.6343C28.4389 19.6573 28.6585 19.5725 28.8073 19.4061C28.9047 19.2948 31.2632 16.7414 34.3731 18.2651C35.9236 19.0178 37.0458 20.4371 37.4204 22.1194C37.8259 23.6761 37.5008 25.3328 36.5368 26.6208Z" fill="white" fill-opacity="0.85"></path> </g> <defs> <clipPath id="clip0"> <rect width="39" height="39" fill="white"></rect> </clipPath> </defs> </svg> 