<?xml version="1.0" encoding="UTF-8"?> <svg xmlns="http://www.w3.org/2000/svg" width="39" height="39" viewBox="0 0 39 39" fill="none"> <g clip-path="url(#clip0)"> <path d="M17.7078 34.1018C17.6123 34.009 17.4903 33.9481 17.3587 33.928V33.9274L15.9291 33.7081L15.284 32.3303C15.1346 32.0104 14.7541 31.8722 14.4341 32.0216C14.2983 32.0851 14.189 32.1943 14.1255 32.3303L13.4804 33.7081L12.0508 33.9274C11.7018 33.9809 11.4622 34.3072 11.5158 34.6562C11.536 34.7878 11.5967 34.9099 11.6896 35.0053L12.7432 36.0877L12.4933 37.6221C12.436 37.9706 12.6721 38.2994 13.0206 38.3567C13.1624 38.3799 13.3079 38.3547 13.4337 38.2851L14.7048 37.5825L15.9758 38.2858C16.2847 38.4567 16.6738 38.3449 16.8447 38.0359C16.9143 37.9102 16.9395 37.7646 16.9162 37.6228L16.6663 36.0883L17.7199 35.0059C17.9662 34.7529 17.9608 34.3481 17.7078 34.1018ZM15.5257 35.4266C15.3843 35.5717 15.32 35.7752 15.3524 35.9752L15.4426 36.5295L15.0142 36.2917C14.8217 36.1851 14.5878 36.1851 14.3953 36.2917L13.9669 36.5295L14.0571 35.9752C14.0895 35.7752 14.0252 35.5717 13.8838 35.4266L13.4721 35.0034L14.0117 34.9203C14.2226 34.8878 14.4035 34.7524 14.4938 34.559L14.7048 34.1115L14.9157 34.559C15.006 34.7524 15.1869 34.8878 15.3978 34.9203L15.9374 35.0034L15.5257 35.4266Z" fill="white" fill-opacity="0.85"></path> <path d="M26.0195 31.2414C25.9241 31.1485 25.8021 31.0877 25.6704 31.0676V31.0669L23.3573 30.7127L22.3164 28.4961C22.1662 28.1765 21.7854 28.0393 21.4659 28.1895C21.331 28.2528 21.2226 28.3613 21.1592 28.4961L20.1184 30.7127L17.8052 31.0669C17.4562 31.1204 17.2166 31.4468 17.2702 31.7958C17.2904 31.9274 17.3511 32.0494 17.444 32.1449L19.137 33.88L18.7361 36.3377C18.6793 36.6862 18.9157 37.0147 19.2642 37.0716C19.4058 37.0947 19.551 37.0695 19.6766 37L21.7378 35.8575L23.7991 36.9968C24.107 37.1697 24.4967 37.0602 24.6695 36.7523C24.7408 36.6254 24.7666 36.478 24.7428 36.3344L24.3387 33.88L26.0317 32.1454C26.278 31.8925 26.2725 31.4877 26.0195 31.2414ZM23.1981 33.2151C23.0565 33.3603 22.9922 33.5641 23.0248 33.7643L23.2659 35.2412L22.0473 34.5673C21.8548 34.4608 21.6209 34.4608 21.4284 34.5673L20.2098 35.2412L20.4508 33.7643C20.4834 33.5641 20.4192 33.3603 20.2776 33.2151L19.2284 32.1397L20.649 31.9224C20.8599 31.8909 21.0409 31.7557 21.1311 31.5624L21.7378 30.2703L22.3446 31.5624C22.4347 31.7557 22.6157 31.8909 22.8266 31.9224L24.2473 32.1397L23.1981 33.2151Z" fill="white" fill-opacity="0.85"></path> <path d="M38.3607 3.83088H35.4286L37.3467 1.91284H38.3607C38.7137 1.91284 39 1.62658 39 1.2735C39 0.920422 38.7137 0.634155 38.3607 0.634155H0.639344C0.286266 0.634155 0 0.920422 0 1.2735C0 1.62658 0.286266 1.91284 0.639344 1.91284H3.57138L1.65334 3.83088H0.639344C0.286266 3.83088 0 4.11714 0 4.47022C0 4.8233 0.286266 5.10957 0.639344 5.10957H2.58359L2.55738 7.54994L1.39377 8.76981C0.332779 9.88275 0.373457 11.6446 1.48456 12.7075L4.09308 15.201C4.212 15.3149 4.37024 15.3786 4.53487 15.3787H4.54957C4.62606 15.3751 4.70134 15.3583 4.77207 15.3288L11.8988 25.5686L8.34408 36.2328C8.23252 36.5683 8.41401 36.9307 8.74943 37.0423C9.08484 37.1538 9.44727 36.9723 9.55884 36.6369L12.8112 26.8786L14.8206 29.7672C15.0223 30.057 15.4207 30.1286 15.7106 29.927C16.0005 29.7254 16.0721 29.3269 15.8704 29.037L13.3131 25.3653L17.2278 13.6205C17.2474 13.5559 17.2565 13.4886 17.2546 13.421H21.1041C21.102 13.4949 21.1131 13.5684 21.1367 13.6384L23.9172 21.34L21.2141 25.2022C21.003 25.4853 21.0614 25.8859 21.3445 26.0969C21.6276 26.3079 22.0282 26.2496 22.2392 25.9665C22.2469 25.9562 22.2542 25.9456 22.2613 25.9349L24.4485 22.8105L29.4482 36.6548C29.5397 36.908 29.78 37.0767 30.0492 37.0768C30.1233 37.0769 30.1969 37.0639 30.2666 37.0384C30.5984 36.9182 30.77 36.552 30.6502 36.2201L25.3436 21.5292L31.0171 13.4249L35.0847 14.8155L30.7051 32.4473C30.62 32.79 30.8286 33.1368 31.1713 33.222C31.1715 33.2221 31.1717 33.2221 31.1719 33.2222C31.2229 33.2344 31.2753 33.2406 31.3279 33.2407C31.6215 33.2406 31.8773 33.0404 31.948 32.7555L36.3032 15.2189C36.3469 15.2309 36.3917 15.2385 36.4369 15.2413C36.7103 15.2412 36.9534 15.0672 37.0417 14.8084L38.2098 11.395C38.707 9.93965 37.9309 8.3568 36.4759 7.85875L36.4426 7.8466V5.10957H38.3607C38.7137 5.10957 39 4.8233 39 4.47022C39 4.11714 38.7137 3.83088 38.3607 3.83088ZM35.5386 1.91284L33.8852 3.56619L32.2319 1.91284H35.5386ZM32.3419 3.83088H29.0352L30.6885 2.17753L32.3419 3.83088ZM29.1451 1.91284L27.4918 3.56619L25.8385 1.91284H29.1451ZM25.9484 3.83088H22.6417L24.2951 2.17753L25.9484 3.83088ZM22.7517 1.91284L21.0984 3.56619L19.445 1.91284H22.7517ZM19.555 3.83088H16.2483L17.9016 2.17753L19.555 3.83088ZM16.3583 1.91284L14.7049 3.56619L13.0516 1.91284H16.3583ZM13.1615 3.83088H9.85485L11.5082 2.17753L13.1615 3.83088ZM9.96482 1.91284L8.31147 3.56619L6.65813 1.91284H9.96482ZM5.11475 2.17753L6.7681 3.83088H3.46141L5.11475 2.17753ZM4.51441 13.8334L2.36557 11.783C1.76411 11.208 1.74205 10.2544 2.31634 9.65211L3.77213 8.13303C4.04681 7.84364 4.42562 7.67589 4.82449 7.66694H4.85902C5.24678 7.66606 5.61968 7.81575 5.89923 8.08443L8.04551 10.1335L4.51441 13.8334ZM12.4033 24.0578L5.7087 14.4338L8.36262 11.6545L15.0009 15.8787C15.0367 15.8987 15.0741 15.9157 15.1128 15.9292L12.4033 24.0578ZM15.951 13.4146L15.5239 14.6933L9.26346 10.7096L9.41306 10.5529C9.65689 10.2975 9.64746 9.89282 9.39205 9.64899L9.39197 9.64891L6.78344 7.15547C6.25239 6.64024 5.53456 6.36324 4.79508 6.38825C4.47013 6.39808 4.14942 6.46498 3.84757 6.58581L3.86292 5.10957H18.541V6.38825H18.1299C16.5923 6.39033 15.3463 7.63633 15.3443 9.17388V12.7817C15.3453 13.1208 15.6123 13.3993 15.951 13.4146ZM21.7377 12.1424H16.6229V9.17388C16.6244 8.34217 17.2982 7.66838 18.1299 7.66694H20.2308C21.0625 7.66838 21.7363 8.34217 21.7377 9.17388V12.1424ZM30.9507 8.91239L29.7832 12.3265C29.7282 12.487 29.7393 12.6626 29.8139 12.8149C29.8235 12.8335 29.8401 12.8456 29.851 12.8635L24.8142 20.0587L22.4148 13.4134C22.7511 13.3957 23.0152 13.1185 23.0164 12.7817V9.17388C23.0143 7.63625 21.7683 6.39033 20.2308 6.38825H19.8197V5.10957H35.1639V7.41121L34.4881 7.17976C33.033 6.68419 31.4512 7.459 30.9507 8.91239ZM37.0033 10.9819L36.0443 13.7899L31.2 12.1347L32.159 9.32924C32.4271 8.54061 33.2836 8.11848 34.0723 8.38653C34.0739 8.38708 34.0755 8.38756 34.077 8.38812L36.0654 9.06775C36.8526 9.33779 37.2723 10.1944 37.0033 10.9819Z" fill="white" fill-opacity="0.85"></path> </g> <defs> <clipPath id="clip0"> <rect width="39" height="39" fill="white"></rect> </clipPath> </defs> </svg> 