<?xml version="1.0" encoding="UTF-8"?> <svg xmlns="http://www.w3.org/2000/svg" width="73" height="73" viewBox="0 0 73 73" fill="none"> <g clip-path="url(#clip0)"> <path d="M21.9291 60.824C21.5019 60.824 21.0747 60.7148 20.6932 60.4943C19.9252 60.0537 19.4668 59.2645 19.4668 58.3834V40.0811C19.4668 39.2017 19.924 38.413 20.6915 37.9714C21.4584 37.5297 22.4097 37.5336 23.1749 37.9753L38.932 47.1253C39.6951 47.5687 40.1501 48.3579 40.1501 49.2328C40.1501 50.11 39.6934 50.8959 38.932 51.3392L23.1749 60.4892C22.7918 60.712 22.3612 60.824 21.9291 60.824ZM21.9524 40.08L21.9001 58.3834V58.3884L37.709 49.2351L21.9524 40.08Z" fill="url(#paint0_linear)"></path> <path d="M52.0833 71.2033H3.88358C1.74213 71.2033 0 69.4611 0 67.3214V31.2859C0 29.1455 1.74213 27.4034 3.88358 27.4034H52.0833C54.2242 27.4034 55.9669 29.1455 55.9669 31.2859V67.3197C55.9669 69.4611 54.2242 71.2033 52.0833 71.2033ZM3.88358 29.8367C3.08437 29.8367 2.4333 30.4866 2.4333 31.2859V67.3197C2.4333 68.1206 3.08437 68.77 3.88358 68.77H52.0833C52.8826 68.77 53.5331 68.1206 53.5331 67.3214V31.2859C53.5331 30.4866 52.8826 29.8367 52.0833 29.8367H3.88358Z" fill="url(#paint1_linear)"></path> <path d="M70.2004 68.77C69.7698 68.77 69.3393 68.6692 68.9378 68.4648L68.8681 68.4269L53.5332 59.308V39.2987L68.8698 30.1798C69.8049 29.698 70.8175 29.7381 71.6495 30.2483C72.495 30.7662 73.0001 31.6729 73.0001 32.6716V65.9352C73.0001 66.9343 72.495 67.8405 71.6495 68.359C71.2017 68.6324 70.7016 68.77 70.2004 68.77ZM70.0678 66.3089C70.197 66.3634 70.3078 66.3295 70.378 66.2832C70.4488 66.2409 70.5668 66.1384 70.5668 65.9352V32.6716C70.5668 32.4683 70.4488 32.3663 70.378 32.3235C70.3028 32.2761 70.1848 32.2388 70.045 32.309L55.9671 40.6821V57.9246L70.0678 66.3089Z" fill="url(#paint2_linear)"></path> <path d="M13.3832 29.8367C7.34481 29.8367 2.43311 24.925 2.43311 18.8866C2.43311 12.8487 7.34481 7.93701 13.3832 7.93701C19.4216 7.93701 24.3333 12.8487 24.3333 18.8866C24.3333 24.925 19.4216 29.8367 13.3832 29.8367ZM13.3832 10.3703C8.68705 10.3703 4.8664 14.1915 4.8664 18.8866C4.8664 23.5822 8.68705 27.4034 13.3832 27.4034C18.0794 27.4034 21.9 23.5822 21.9 18.8866C21.9 14.1915 18.0794 10.3703 13.3832 10.3703Z" fill="url(#paint3_linear)"></path> <path d="M35.892 29.8367C28.1772 29.8367 21.9004 23.5599 21.9004 15.8451C21.9004 8.13029 28.1772 1.85352 35.892 1.85352C43.6068 1.85352 49.8836 8.13029 49.8836 15.8451C49.8836 23.5599 43.6068 29.8367 35.892 29.8367ZM35.892 4.28681C29.5189 4.28681 24.3337 9.47253 24.3337 15.8451C24.3337 22.2182 29.5189 27.4034 35.892 27.4034C42.2646 27.4034 47.4503 22.2182 47.4503 15.8451C47.4503 9.47253 42.2646 4.28681 35.892 4.28681Z" fill="url(#paint4_linear)"></path> <path d="M35.8916 24.9701C30.8607 24.9701 26.7666 20.8771 26.7666 15.8451C26.7666 10.8131 30.8607 6.72009 35.8916 6.72009C36.5633 6.72009 37.108 7.26423 37.108 7.93702C37.108 8.60981 36.5633 9.15339 35.8916 9.15339C32.2013 9.15339 29.1999 12.1564 29.1999 15.8451C29.1999 19.5343 32.2013 22.5368 35.8916 22.5368C39.5814 22.5368 42.5833 19.5343 42.5833 15.8451C42.5833 15.1723 43.128 14.6287 43.7997 14.6287C44.4713 14.6287 45.0166 15.1723 45.0166 15.8451C45.0166 20.8771 40.9236 24.9701 35.8916 24.9701Z" fill="url(#paint5_linear)"></path> <path d="M13.3833 24.9701C10.0288 24.9701 7.2998 22.2411 7.2998 18.8866C7.2998 18.2138 7.84505 17.6702 8.51673 17.6702C9.18841 17.6702 9.7331 18.2138 9.7331 18.8866C9.7331 20.8994 11.3711 22.5368 13.3833 22.5368C15.3956 22.5368 17.033 20.8994 17.033 18.8866C17.033 16.8744 15.3956 15.2369 13.3833 15.2369C12.7116 15.2369 12.1664 14.6928 12.1664 14.02C12.1664 13.3472 12.7116 12.8036 13.3833 12.8036C16.7378 12.8036 19.4668 15.5327 19.4668 18.8866C19.4668 22.2411 16.7378 24.9701 13.3833 24.9701Z" fill="url(#paint6_linear)"></path> </g> <defs> <linearGradient id="paint0_linear" x1="29.8084" y1="37.6421" x2="29.8084" y2="60.824" gradientUnits="userSpaceOnUse"> <stop stop-color="#7845CF"></stop> <stop offset="1" stop-color="#9932CC"></stop> </linearGradient> <linearGradient id="paint1_linear" x1="27.9835" y1="27.4034" x2="27.9835" y2="71.2033" gradientUnits="userSpaceOnUse"> <stop stop-color="#7845CF"></stop> <stop offset="1" stop-color="#9932CC"></stop> </linearGradient> <linearGradient id="paint2_linear" x1="63.2667" y1="29.8409" x2="63.2667" y2="68.77" gradientUnits="userSpaceOnUse"> <stop stop-color="#7845CF"></stop> <stop offset="1" stop-color="#9932CC"></stop> </linearGradient> <linearGradient id="paint3_linear" x1="13.3832" y1="7.93701" x2="13.3832" y2="29.8367" gradientUnits="userSpaceOnUse"> <stop stop-color="#7845CF"></stop> <stop offset="1" stop-color="#9932CC"></stop> </linearGradient> <linearGradient id="paint4_linear" x1="35.892" y1="1.85352" x2="35.892" y2="29.8367" gradientUnits="userSpaceOnUse"> <stop stop-color="#7845CF"></stop> <stop offset="1" stop-color="#9932CC"></stop> </linearGradient> <linearGradient id="paint5_linear" x1="35.8916" y1="6.72009" x2="35.8916" y2="24.9701" gradientUnits="userSpaceOnUse"> <stop stop-color="#7845CF"></stop> <stop offset="1" stop-color="#9932CC"></stop> </linearGradient> <linearGradient id="paint6_linear" x1="13.3833" y1="12.8036" x2="13.3833" y2="24.9701" gradientUnits="userSpaceOnUse"> <stop stop-color="#7845CF"></stop> <stop offset="1" stop-color="#9932CC"></stop> </linearGradient> <clipPath id="clip0"> <rect width="73" height="73" fill="white"></rect> </clipPath> </defs> </svg> 